<svg xmlns="http://www.w3.org/2000/svg"  viewBox="0 0 32 32" width="32px" height="32px" baseProfile="basic"><path fill="#e83815" d="M3,7c0,0-1,4-1,9s1,9,1,9s6,1,13,1s13-1,13-1s1-4,1-9s-1-9-1-9s-6-1-13-1S3,7,3,7z"/><path fill="#fff" d="M12.98,21.355v-10.71L22.5,16L12.98,21.355z M13.98,12.355v7.29L20.461,16L13.98,12.355z"/><path fill="#302529" d="M16,27c-7.002,0-12.916-0.973-13.164-1.014l-0.647-0.107L2.03,25.242C1.988,25.074,1,21.064,1,16	s0.988-9.074,1.03-9.242l0.158-0.637l0.647-0.107C3.084,5.973,8.998,5,16,5s12.916,0.973,13.164,1.014l0.647,0.107l0.158,0.637	C30.012,6.926,31,10.936,31,16s-0.988,9.074-1.03,9.242l-0.158,0.637l-0.647,0.107C28.916,26.027,23.002,27,16,27z M3.828,24.114	C5.566,24.366,10.497,25,16,25s10.434-0.634,12.172-0.886C28.441,22.81,29,19.665,29,16s-0.559-6.81-0.828-8.114	C26.434,7.634,21.503,7,16,7S5.566,7.634,3.828,7.886C3.559,9.19,3,12.335,3,16S3.559,22.81,3.828,24.114z"/></svg>